<svg width="40" height="46" viewBox="0 0 40 46" fill="none" xmlns="http://www.w3.org/2000/svg">
<path d="M4.31549 24.4317L28.6085 41.1711C29.7801 41.9784 31.6796 41.9784 32.8511 41.1711L35.6845 39.2187C36.8541 38.4127 36.8564 37.1065 35.6895 36.2987L16.4369 22.97L35.6895 9.64137C36.8564 8.83353 36.8541 7.52732 35.6845 6.72138L32.8511 4.76901C31.6795 3.96168 29.78 3.96168 28.6085 4.76901L4.31562 21.5083C3.144 22.3155 3.14399 23.6244 4.31549 24.4317Z" fill="#F4F4F4"/>
<path d="M4.31549 24.4317L28.6085 41.1711C29.7801 41.9784 31.6796 41.9784 32.8511 41.1711L35.6845 39.2187C36.8541 38.4127 36.8564 37.1065 35.6895 36.2987L16.4369 22.97L35.6895 9.64137C36.8564 8.83353 36.8541 7.52732 35.6845 6.72138L32.8511 4.76901C31.6795 3.96168 29.78 3.96168 28.6085 4.76901L4.31562 21.5083C3.144 22.3155 3.14399 23.6244 4.31549 24.4317Z" fill="url(#paint0_linear)"/>
<defs>
<linearGradient id="paint0_linear" x1="20" y1="4.16351" x2="20" y2="41.7765" gradientUnits="userSpaceOnUse">
<stop stop-color="#FF7315" stop-opacity="0.4"/>
<stop offset="1" stop-color="#F4F4F4"/>
</linearGradient>
</defs>
</svg>
