<svg width="40" height="46" viewBox="0 0 40 46" fill="none" xmlns="http://www.w3.org/2000/svg">
<path d="M35.6845 24.4317L11.3915 41.1711C10.2199 41.9784 8.32038 41.9784 7.14888 41.1711L4.3155 39.2187C3.14588 38.4127 3.14363 37.1065 4.3105 36.2987L23.5631 22.97L4.3105 9.64137C3.14363 8.83353 3.14588 7.52732 4.3155 6.72138L7.14888 4.76901C8.3205 3.96168 10.22 3.96168 11.3915 4.76901L35.6844 21.5083C36.856 22.3155 36.856 23.6244 35.6845 24.4317Z" fill="#F4F4F4"/>
<path d="M35.6845 24.4317L11.3915 41.1711C10.2199 41.9784 8.32038 41.9784 7.14888 41.1711L4.3155 39.2187C3.14588 38.4127 3.14363 37.1065 4.3105 36.2987L23.5631 22.97L4.3105 9.64137C3.14363 8.83353 3.14588 7.52732 4.3155 6.72138L7.14888 4.76901C8.3205 3.96168 10.22 3.96168 11.3915 4.76901L35.6844 21.5083C36.856 22.3155 36.856 23.6244 35.6845 24.4317Z" fill="url(#paint0_linear)"/>
<defs>
<linearGradient id="paint0_linear" x1="20" y1="4.16351" x2="20" y2="41.7765" gradientUnits="userSpaceOnUse">
<stop stop-color="#FF7315" stop-opacity="0.4"/>
<stop offset="1" stop-color="#F4F4F4"/>
</linearGradient>
</defs>
</svg>
