<svg width="69" height="71" viewBox="0 0 69 71" fill="none" xmlns="http://www.w3.org/2000/svg">
<g clip-path="url(#clip0)">
<path d="M2.15625 39.7575C0.970312 39.7575 0 40.7514 0 41.9663V46.3838C0 47.5986 0.970312 48.5925 2.15625 48.5925H17.25V39.7575H2.15625ZM68.0566 14.4949L54.8631 0.966328C54.2566 0.345117 53.4346 0 52.5721 0H51.75V17.67H69V16.8279C69 15.9582 68.6631 15.1161 68.0566 14.4949ZM47.4375 18.7744V0H20.4844C18.692 0 17.25 1.4771 17.25 3.31313V39.7575H34.5V30.7568C34.5 28.7828 36.8314 27.8026 38.1926 29.1969L51.0762 42.5184C51.9656 43.4434 51.9656 44.9205 51.0762 45.8316L38.1791 59.1393C36.818 60.5336 34.4865 59.5534 34.4865 57.5794V48.5925H17.25V67.3669C17.25 69.2029 18.692 70.68 20.4844 70.68H65.7656C67.558 70.68 69 69.2029 69 67.3669V22.0875H50.6719C48.893 22.0875 47.4375 20.5966 47.4375 18.7744Z" fill="#FF7315"/>
<path d="M2.15625 39.7575C0.970312 39.7575 0 40.7514 0 41.9663V46.3838C0 47.5986 0.970312 48.5925 2.15625 48.5925H17.25V39.7575H2.15625ZM68.0566 14.4949L54.8631 0.966328C54.2566 0.345117 53.4346 0 52.5721 0H51.75V17.67H69V16.8279C69 15.9582 68.6631 15.1161 68.0566 14.4949ZM47.4375 18.7744V0H20.4844C18.692 0 17.25 1.4771 17.25 3.31313V39.7575H34.5V30.7568C34.5 28.7828 36.8314 27.8026 38.1926 29.1969L51.0762 42.5184C51.9656 43.4434 51.9656 44.9205 51.0762 45.8316L38.1791 59.1393C36.818 60.5336 34.4865 59.5534 34.4865 57.5794V48.5925H17.25V67.3669C17.25 69.2029 18.692 70.68 20.4844 70.68H65.7656C67.558 70.68 69 69.2029 69 67.3669V22.0875H50.6719C48.893 22.0875 47.4375 20.5966 47.4375 18.7744Z" fill="url(#paint0_linear)"/>
</g>
<defs>
<linearGradient id="paint0_linear" x1="34.5" y1="0" x2="34.5" y2="70.68" gradientUnits="userSpaceOnUse">
<stop stop-color="#F4F4F4"/>
<stop offset="1" stop-color="white" stop-opacity="0"/>
</linearGradient>
<clipPath id="clip0">
<rect width="69" height="70.68" fill="white"/>
</clipPath>
</defs>
</svg>
