<svg width="77" height="72" viewBox="0 0 77 72" fill="none" xmlns="http://www.w3.org/2000/svg">
<g filter="url(#filter0_d)">
<path d="M72.604 40.7216L63.9282 57.8619C63.253 59.1958 62.2863 60.3025 61.1244 61.0717C59.9625 61.8408 58.6459 62.2455 57.306 62.2455H9.39362C7.17472 62.2455 5.7922 59.4715 6.91022 57.2626L15.586 40.1223C16.2612 38.7884 17.2279 37.6818 18.3899 36.9126C19.5518 36.1435 20.8684 35.7388 22.2083 35.7388H70.1207C72.3396 35.7388 73.7221 38.5127 72.604 40.7216ZM22.2083 31.321H61.5V24.6943C61.5 21.0344 58.9257 18.0676 55.75 18.0676H36.5833L28.9167 9.23206H9.75C6.57432 9.23206 4 12.1989 4 15.8587V54.2446L12.2748 37.8963C14.3277 33.8405 18.1341 31.321 22.2083 31.321Z" fill="#FF7315"/>
<path d="M72.604 40.7216L63.9282 57.8619C63.253 59.1958 62.2863 60.3025 61.1244 61.0717C59.9625 61.8408 58.6459 62.2455 57.306 62.2455H9.39362C7.17472 62.2455 5.7922 59.4715 6.91022 57.2626L15.586 40.1223C16.2612 38.7884 17.2279 37.6818 18.3899 36.9126C19.5518 36.1435 20.8684 35.7388 22.2083 35.7388H70.1207C72.3396 35.7388 73.7221 38.5127 72.604 40.7216ZM22.2083 31.321H61.5V24.6943C61.5 21.0344 58.9257 18.0676 55.75 18.0676H36.5833L28.9167 9.23206H9.75C6.57432 9.23206 4 12.1989 4 15.8587V54.2446L12.2748 37.8963C14.3277 33.8405 18.1341 31.321 22.2083 31.321Z" fill="url(#paint0_linear)"/>
</g>
<defs>
<filter id="filter0_d" x="0" y="0.396484" width="77" height="78.6846" filterUnits="userSpaceOnUse" color-interpolation-filters="sRGB">
<feFlood flood-opacity="0" result="BackgroundImageFix"/>
<feColorMatrix in="SourceAlpha" type="matrix" values="0 0 0 0 0 0 0 0 0 0 0 0 0 0 0 0 0 0 127 0"/>
<feOffset dy="4"/>
<feGaussianBlur stdDeviation="2"/>
<feColorMatrix type="matrix" values="0 0 0 0 0 0 0 0 0 0 0 0 0 0 0 0 0 0 0.25 0"/>
<feBlend mode="normal" in2="BackgroundImageFix" result="effect1_dropShadow"/>
<feBlend mode="normal" in="SourceGraphic" in2="effect1_dropShadow" result="shape"/>
</filter>
<linearGradient id="paint0_linear" x1="38.5" y1="9.23206" x2="38.5" y2="62.2455" gradientUnits="userSpaceOnUse">
<stop stop-color="#F4F4F4"/>
<stop offset="1" stop-color="white" stop-opacity="0"/>
</linearGradient>
</defs>
</svg>
