<svg width="69" height="71" viewBox="0 0 69 71" fill="none" xmlns="http://www.w3.org/2000/svg">
<g clip-path="url(#clip0)">
<path d="M33.586 20.4668L11.5 41.4292V64.0537C11.5 64.6395 11.702 65.2013 12.0614 65.6156C12.4208 66.0298 12.9084 66.2625 13.4167 66.2625L26.8405 66.2225C27.3472 66.2195 27.8323 65.9855 28.1896 65.5716C28.547 65.1577 28.7476 64.5976 28.7476 64.0137V50.8012C28.7476 50.2155 28.9496 49.6536 29.309 49.2394C29.6684 48.8252 30.156 48.5925 30.6643 48.5925H38.331C38.8393 48.5925 39.3268 48.8252 39.6862 49.2394C40.0457 49.6536 40.2476 50.2155 40.2476 50.8012V64.004C40.2468 64.2947 40.2958 64.5826 40.3918 64.8514C40.4878 65.1202 40.6288 65.3645 40.8069 65.5703C40.9849 65.7762 41.1965 65.9395 41.4294 66.0509C41.6624 66.1623 41.9121 66.2197 42.1643 66.2197L55.5833 66.2625C56.0917 66.2625 56.5792 66.0298 56.9386 65.6156C57.2981 65.2013 57.5 64.6395 57.5 64.0537V41.4141L35.4188 20.4668C35.1592 20.2257 34.8358 20.0942 34.5024 20.0942C34.169 20.0942 33.8456 20.2257 33.586 20.4668V20.4668ZM68.4729 34.7146L58.4583 25.2018V6.08097C58.4583 5.64162 58.3069 5.22027 58.0373 4.9096C57.7677 4.59894 57.4021 4.42441 57.0208 4.42441H50.3125C49.9313 4.42441 49.5656 4.59894 49.296 4.9096C49.0265 5.22027 48.875 5.64162 48.875 6.08097V16.1046L38.1501 5.93602C37.1208 4.96 35.8293 4.42636 34.4964 4.42636C33.1635 4.42636 31.872 4.96 30.8428 5.93602L0.519921 34.7146C0.374359 34.8533 0.25393 35.0236 0.165514 35.2159C0.0770983 35.4082 0.0224288 35.6187 0.00462944 35.8354C-0.0131699 36.052 0.00624962 36.2706 0.0617785 36.4786C0.117307 36.6866 0.207857 36.88 0.328254 37.0476L3.38294 41.3271C3.50301 41.4953 3.6507 41.6346 3.81754 41.737C3.98439 41.8394 4.16712 41.9029 4.35528 41.9238C4.54344 41.9447 4.73332 41.9226 4.91407 41.8588C5.09482 41.7951 5.26287 41.6908 5.40862 41.5521L33.586 14.8069C33.8456 14.5658 34.169 14.4343 34.5024 14.4343C34.8358 14.4343 35.1592 14.5658 35.4188 14.8069L63.5974 41.5521C63.7429 41.6909 63.9107 41.7952 64.0912 41.8592C64.2717 41.9232 64.4614 41.9456 64.6494 41.9251C64.8374 41.9045 65.02 41.8415 65.1869 41.7396C65.3538 41.6378 65.5016 41.499 65.6219 41.3312L68.6766 37.0518C68.7968 36.8831 68.887 36.6888 68.9419 36.4799C68.9968 36.271 69.0153 36.0516 68.9963 35.8344C68.9774 35.6172 68.9214 35.4065 68.8316 35.2143C68.7418 35.0222 68.6199 34.8524 68.4729 34.7146V34.7146Z" fill="#FF7315"/>
<path d="M33.586 20.4668L11.5 41.4292V64.0537C11.5 64.6395 11.702 65.2013 12.0614 65.6156C12.4208 66.0298 12.9084 66.2625 13.4167 66.2625L26.8405 66.2225C27.3472 66.2195 27.8323 65.9855 28.1896 65.5716C28.547 65.1577 28.7476 64.5976 28.7476 64.0137V50.8012C28.7476 50.2155 28.9496 49.6536 29.309 49.2394C29.6684 48.8252 30.156 48.5925 30.6643 48.5925H38.331C38.8393 48.5925 39.3268 48.8252 39.6862 49.2394C40.0457 49.6536 40.2476 50.2155 40.2476 50.8012V64.004C40.2468 64.2947 40.2958 64.5826 40.3918 64.8514C40.4878 65.1202 40.6288 65.3645 40.8069 65.5703C40.9849 65.7762 41.1965 65.9395 41.4294 66.0509C41.6624 66.1623 41.9121 66.2197 42.1643 66.2197L55.5833 66.2625C56.0917 66.2625 56.5792 66.0298 56.9386 65.6156C57.2981 65.2013 57.5 64.6395 57.5 64.0537V41.4141L35.4188 20.4668C35.1592 20.2257 34.8358 20.0942 34.5024 20.0942C34.169 20.0942 33.8456 20.2257 33.586 20.4668V20.4668ZM68.4729 34.7146L58.4583 25.2018V6.08097C58.4583 5.64162 58.3069 5.22027 58.0373 4.9096C57.7677 4.59894 57.4021 4.42441 57.0208 4.42441H50.3125C49.9313 4.42441 49.5656 4.59894 49.296 4.9096C49.0265 5.22027 48.875 5.64162 48.875 6.08097V16.1046L38.1501 5.93602C37.1208 4.96 35.8293 4.42636 34.4964 4.42636C33.1635 4.42636 31.872 4.96 30.8428 5.93602L0.519921 34.7146C0.374359 34.8533 0.25393 35.0236 0.165514 35.2159C0.0770983 35.4082 0.0224288 35.6187 0.00462944 35.8354C-0.0131699 36.052 0.00624962 36.2706 0.0617785 36.4786C0.117307 36.6866 0.207857 36.88 0.328254 37.0476L3.38294 41.3271C3.50301 41.4953 3.6507 41.6346 3.81754 41.737C3.98439 41.8394 4.16712 41.9029 4.35528 41.9238C4.54344 41.9447 4.73332 41.9226 4.91407 41.8588C5.09482 41.7951 5.26287 41.6908 5.40862 41.5521L33.586 14.8069C33.8456 14.5658 34.169 14.4343 34.5024 14.4343C34.8358 14.4343 35.1592 14.5658 35.4188 14.8069L63.5974 41.5521C63.7429 41.6909 63.9107 41.7952 64.0912 41.8592C64.2717 41.9232 64.4614 41.9456 64.6494 41.9251C64.8374 41.9045 65.02 41.8415 65.1869 41.7396C65.3538 41.6378 65.5016 41.499 65.6219 41.3312L68.6766 37.0518C68.7968 36.8831 68.887 36.6888 68.9419 36.4799C68.9968 36.271 69.0153 36.0516 68.9963 35.8344C68.9774 35.6172 68.9214 35.4065 68.8316 35.2143C68.7418 35.0222 68.6199 34.8524 68.4729 34.7146V34.7146Z" fill="url(#paint0_linear)"/>
</g>
<defs>
<linearGradient id="paint0_linear" x1="34.5009" y1="4.42441" x2="34.5009" y2="66.2625" gradientUnits="userSpaceOnUse">
<stop stop-color="white"/>
<stop offset="1" stop-color="white" stop-opacity="0"/>
</linearGradient>
<clipPath id="clip0">
<rect width="69" height="70.68" fill="white"/>
</clipPath>
</defs>
</svg>
