<svg width="69" height="72" viewBox="0 0 69 72" fill="none" xmlns="http://www.w3.org/2000/svg">
<g clip-path="url(#clip0)">
<path d="M63.3911 1.02419L20.2701 14.0691C19.3948 14.3508 18.63 14.9111 18.0868 15.6686C17.5437 16.4261 17.2506 17.3413 17.25 18.2812V54.3703C15.8379 54.0192 14.3906 53.8376 12.9375 53.8292C5.79492 53.8292 0 57.7858 0 62.6647C0 67.5436 5.79492 71.5003 12.9375 71.5003C20.0801 71.5003 25.875 67.5436 25.875 62.6647V30.4038L60.375 20.0497V45.5361C58.963 45.1838 57.5157 45.0017 56.0625 44.9936C48.9199 44.9936 43.125 48.9503 43.125 53.8292C43.125 58.708 48.9199 62.6647 56.0625 62.6647C63.2051 62.6647 69 58.7094 69 53.8292V5.23351C68.9994 4.53997 68.8394 3.85633 68.5329 3.23791C68.2265 2.61949 67.7822 2.08367 67.2361 1.67381C66.6899 1.26396 66.0573 0.991576 65.3893 0.878717C64.7213 0.765859 64.0367 0.815694 63.3911 1.02419Z" fill="#FF7315"/>
<path d="M63.3911 1.02419L20.2701 14.0691C19.3948 14.3508 18.63 14.9111 18.0868 15.6686C17.5437 16.4261 17.2506 17.3413 17.25 18.2812V54.3703C15.8379 54.0192 14.3906 53.8376 12.9375 53.8292C5.79492 53.8292 0 57.7858 0 62.6647C0 67.5436 5.79492 71.5003 12.9375 71.5003C20.0801 71.5003 25.875 67.5436 25.875 62.6647V30.4038L60.375 20.0497V45.5361C58.963 45.1838 57.5157 45.0017 56.0625 44.9936C48.9199 44.9936 43.125 48.9503 43.125 53.8292C43.125 58.708 48.9199 62.6647 56.0625 62.6647C63.2051 62.6647 69 58.7094 69 53.8292V5.23351C68.9994 4.53997 68.8394 3.85633 68.5329 3.23791C68.2265 2.61949 67.7822 2.08367 67.2361 1.67381C66.6899 1.26396 66.0573 0.991576 65.3893 0.878717C64.7213 0.765859 64.0367 0.815694 63.3911 1.02419Z" fill="url(#paint0_linear)"/>
</g>
<defs>
<linearGradient id="paint0_linear" x1="34.5" y1="0.819832" x2="34.5" y2="71.5003" gradientUnits="userSpaceOnUse">
<stop stop-color="#F4F4F4"/>
<stop offset="1" stop-color="white" stop-opacity="0"/>
</linearGradient>
<clipPath id="clip0">
<rect width="69" height="70.6846" fill="white" transform="translate(0 0.81543)"/>
</clipPath>
</defs>
</svg>
