<svg width="121" height="120" viewBox="0 0 121 120" fill="none" xmlns="http://www.w3.org/2000/svg">
<ellipse cx="60.5" cy="60.01" rx="60.5" ry="59.29" fill="#3A3535"/>
<ellipse cx="60.5" cy="60.01" rx="60.5" ry="59.29" fill="url(#paint0_linear)"/>
<path d="M51 87.875H39C35.6875 87.875 33 85.1875 33 81.875V37.875C33 34.5625 35.6875 31.875 39 31.875H51C54.3125 31.875 57 34.5625 57 37.875V81.875C57 85.1875 54.3125 87.875 51 87.875ZM89 81.875V37.875C89 34.5625 86.3125 31.875 83 31.875H71C67.6875 31.875 65 34.5625 65 37.875V81.875C65 85.1875 67.6875 87.875 71 87.875H83C86.3125 87.875 89 85.1875 89 81.875Z" fill="#FF7315"/>
<path d="M51 87.875H39C35.6875 87.875 33 85.1875 33 81.875V37.875C33 34.5625 35.6875 31.875 39 31.875H51C54.3125 31.875 57 34.5625 57 37.875V81.875C57 85.1875 54.3125 87.875 51 87.875ZM89 81.875V37.875C89 34.5625 86.3125 31.875 83 31.875H71C67.6875 31.875 65 34.5625 65 37.875V81.875C65 85.1875 67.6875 87.875 71 87.875H83C86.3125 87.875 89 85.1875 89 81.875Z" fill="url(#paint1_linear)"/>
<defs>
<linearGradient id="paint0_linear" x1="60.5" y1="0.720001" x2="60.5" y2="119.3" gradientUnits="userSpaceOnUse">
<stop stop-color="#F4F4F4" stop-opacity="0.55"/>
<stop offset="1" stop-color="white" stop-opacity="0"/>
</linearGradient>
<linearGradient id="paint1_linear" x1="61" y1="31.875" x2="61" y2="87.875" gradientUnits="userSpaceOnUse">
<stop stop-color="#F4F4F4"/>
<stop offset="1" stop-color="white" stop-opacity="0"/>
</linearGradient>
</defs>
</svg>
