<svg width="121" height="120" viewBox="0 0 121 120" fill="none" xmlns="http://www.w3.org/2000/svg">
<ellipse cx="60.5" cy="60.01" rx="60.5" ry="59.29" fill="#3A3535"/>
<ellipse cx="60.5" cy="60.01" rx="60.5" ry="59.29" fill="url(#paint0_linear)"/>
<g clip-path="url(#clip0)">
<path d="M90.2607 54.5564L49.4036 27.0726C46.0839 24.8406 41 27.0065 41 32.5271V87.4816C41 92.4342 45.7241 95.419 49.4036 92.9361L90.2607 65.4654C93.9054 63.0221 93.917 56.9997 90.2607 54.5564Z" fill="#FF7315"/>
<path d="M90.2607 54.5564L49.4036 27.0726C46.0839 24.8406 41 27.0065 41 32.5271V87.4816C41 92.4342 45.7241 95.419 49.4036 92.9361L90.2607 65.4654C93.9054 63.0221 93.917 56.9997 90.2607 54.5564Z" fill="url(#paint1_linear)"/>
</g>
<defs>
<linearGradient id="paint0_linear" x1="60.5" y1="0.720001" x2="60.5" y2="119.3" gradientUnits="userSpaceOnUse">
<stop stop-color="#F4F4F4" stop-opacity="0.55"/>
<stop offset="1" stop-color="white" stop-opacity="0"/>
</linearGradient>
<linearGradient id="paint1_linear" x1="66.9993" y1="26.2051" x2="66.9993" y2="93.8279" gradientUnits="userSpaceOnUse">
<stop stop-color="#F4F4F4"/>
<stop offset="1" stop-color="white" stop-opacity="0"/>
</linearGradient>
<clipPath id="clip0">
<rect width="52" height="67.62" fill="white" transform="translate(41 26.2)"/>
</clipPath>
</defs>
</svg>
