<svg width="302" height="294" viewBox="0 0 302 294" fill="none" xmlns="http://www.w3.org/2000/svg">
<path d="M151 87.2812C138.867 87.2812 127.007 90.7837 116.919 97.3457C106.831 103.908 98.9687 113.234 94.3258 124.147C89.6828 135.059 88.468 147.066 90.835 158.651C93.2019 170.235 99.0443 180.876 107.623 189.228C116.202 197.579 127.133 203.267 139.032 205.571C150.932 207.876 163.266 206.693 174.475 202.173C185.684 197.653 195.265 189.999 202.005 180.178C208.746 170.357 212.344 158.811 212.344 147C212.344 131.162 205.881 115.972 194.377 104.772C182.872 93.573 167.269 87.2812 151 87.2812ZM151 160.781C148.2 160.781 145.463 159.973 143.135 158.459C140.807 156.944 138.993 154.792 137.921 152.274C136.85 149.756 136.57 146.985 137.116 144.311C137.662 141.638 139.01 139.183 140.99 137.255C142.97 135.328 145.492 134.015 148.238 133.484C150.984 132.952 153.831 133.225 156.417 134.268C159.004 135.311 161.215 137.077 162.77 139.344C164.326 141.61 165.156 144.274 165.156 147C165.156 150.655 163.665 154.16 161.01 156.745C158.355 159.329 154.754 160.781 151 160.781ZM151 4.59375C70.1914 4.59375 4.71875 68.332 4.71875 147C4.71875 225.668 70.1914 289.406 151 289.406C231.809 289.406 297.281 225.668 297.281 147C297.281 68.332 231.809 4.59375 151 4.59375ZM151 220.5C136.068 220.5 121.47 216.189 109.054 208.113C96.6385 200.037 86.9615 188.558 81.2471 175.127C75.5327 161.697 74.0375 146.918 76.9507 132.661C79.8639 118.403 87.0546 105.307 97.6134 95.0276C108.172 84.7485 121.625 77.7483 136.271 74.9123C150.916 72.0763 166.097 73.5318 179.893 79.0949C193.688 84.6579 205.48 94.0786 213.776 106.166C222.072 118.253 226.5 132.463 226.5 147C226.5 166.493 218.546 185.188 204.387 198.972C190.228 212.756 171.024 220.5 151 220.5Z" fill="#FF7315"/>
<path d="M151 87.2812C138.867 87.2812 127.007 90.7837 116.919 97.3457C106.831 103.908 98.9687 113.234 94.3258 124.147C89.6828 135.059 88.468 147.066 90.835 158.651C93.2019 170.235 99.0443 180.876 107.623 189.228C116.202 197.579 127.133 203.267 139.032 205.571C150.932 207.876 163.266 206.693 174.475 202.173C185.684 197.653 195.265 189.999 202.005 180.178C208.746 170.357 212.344 158.811 212.344 147C212.344 131.162 205.881 115.972 194.377 104.772C182.872 93.573 167.269 87.2812 151 87.2812ZM151 160.781C148.2 160.781 145.463 159.973 143.135 158.459C140.807 156.944 138.993 154.792 137.921 152.274C136.85 149.756 136.57 146.985 137.116 144.311C137.662 141.638 139.01 139.183 140.99 137.255C142.97 135.328 145.492 134.015 148.238 133.484C150.984 132.952 153.831 133.225 156.417 134.268C159.004 135.311 161.215 137.077 162.77 139.344C164.326 141.61 165.156 144.274 165.156 147C165.156 150.655 163.665 154.16 161.01 156.745C158.355 159.329 154.754 160.781 151 160.781ZM151 4.59375C70.1914 4.59375 4.71875 68.332 4.71875 147C4.71875 225.668 70.1914 289.406 151 289.406C231.809 289.406 297.281 225.668 297.281 147C297.281 68.332 231.809 4.59375 151 4.59375ZM151 220.5C136.068 220.5 121.47 216.189 109.054 208.113C96.6385 200.037 86.9615 188.558 81.2471 175.127C75.5327 161.697 74.0375 146.918 76.9507 132.661C79.8639 118.403 87.0546 105.307 97.6134 95.0276C108.172 84.7485 121.625 77.7483 136.271 74.9123C150.916 72.0763 166.097 73.5318 179.893 79.0949C193.688 84.6579 205.48 94.0786 213.776 106.166C222.072 118.253 226.5 132.463 226.5 147C226.5 166.493 218.546 185.188 204.387 198.972C190.228 212.756 171.024 220.5 151 220.5Z" fill="url(#paint0_linear)"/>
<defs>
<linearGradient id="paint0_linear" x1="151" y1="4.59375" x2="151" y2="289.406" gradientUnits="userSpaceOnUse">
<stop stop-color="#F4F4F4"/>
<stop offset="1" stop-color="white" stop-opacity="0"/>
</linearGradient>
</defs>
</svg>
