<svg width="69" height="72" viewBox="0 0 69 72" fill="none" xmlns="http://www.w3.org/2000/svg">
<path d="M66.8438 53.8572H21.5625V51.6483C21.5625 50.4334 20.5922 49.4394 19.4062 49.4394H15.0938C13.9078 49.4394 12.9375 50.4334 12.9375 51.6483V53.8572H2.15625C0.970312 53.8572 0 54.8512 0 56.0661V60.4839C0 61.6987 0.970312 62.6927 2.15625 62.6927H12.9375V64.9016C12.9375 66.1165 13.9078 67.1105 15.0938 67.1105H19.4062C20.5922 67.1105 21.5625 66.1165 21.5625 64.9016V62.6927H66.8438C68.0297 62.6927 69 61.6987 69 60.4839V56.0661C69 54.8512 68.0297 53.8572 66.8438 53.8572ZM66.8438 31.7682H56.0625V29.5594C56.0625 28.3445 55.0922 27.3505 53.9062 27.3505H49.5938C48.4078 27.3505 47.4375 28.3445 47.4375 29.5594V31.7682H2.15625C0.970312 31.7682 0 32.7623 0 33.9771V38.3949C0 39.6098 0.970312 40.6038 2.15625 40.6038H47.4375V42.8127C47.4375 44.0276 48.4078 45.0216 49.5938 45.0216H53.9062C55.0922 45.0216 56.0625 44.0276 56.0625 42.8127V40.6038H66.8438C68.0297 40.6038 69 39.6098 69 38.3949V33.9771C69 32.7623 68.0297 31.7682 66.8438 31.7682ZM66.8438 9.67932H38.8125V7.47043C38.8125 6.25554 37.8422 5.26154 36.6562 5.26154H32.3438C31.1578 5.26154 30.1875 6.25554 30.1875 7.47043V9.67932H2.15625C0.970312 9.67932 0 10.6733 0 11.8882V16.306C0 17.5209 0.970312 18.5149 2.15625 18.5149H30.1875V20.7238C30.1875 21.9387 31.1578 22.9327 32.3438 22.9327H36.6562C37.8422 22.9327 38.8125 21.9387 38.8125 20.7238V18.5149H66.8438C68.0297 18.5149 69 17.5209 69 16.306V11.8882C69 10.6733 68.0297 9.67932 66.8438 9.67932Z" fill="#FF7315"/>
<path d="M66.8438 53.8572H21.5625V51.6483C21.5625 50.4334 20.5922 49.4394 19.4062 49.4394H15.0938C13.9078 49.4394 12.9375 50.4334 12.9375 51.6483V53.8572H2.15625C0.970312 53.8572 0 54.8512 0 56.0661V60.4839C0 61.6987 0.970312 62.6927 2.15625 62.6927H12.9375V64.9016C12.9375 66.1165 13.9078 67.1105 15.0938 67.1105H19.4062C20.5922 67.1105 21.5625 66.1165 21.5625 64.9016V62.6927H66.8438C68.0297 62.6927 69 61.6987 69 60.4839V56.0661C69 54.8512 68.0297 53.8572 66.8438 53.8572ZM66.8438 31.7682H56.0625V29.5594C56.0625 28.3445 55.0922 27.3505 53.9062 27.3505H49.5938C48.4078 27.3505 47.4375 28.3445 47.4375 29.5594V31.7682H2.15625C0.970312 31.7682 0 32.7623 0 33.9771V38.3949C0 39.6098 0.970312 40.6038 2.15625 40.6038H47.4375V42.8127C47.4375 44.0276 48.4078 45.0216 49.5938 45.0216H53.9062C55.0922 45.0216 56.0625 44.0276 56.0625 42.8127V40.6038H66.8438C68.0297 40.6038 69 39.6098 69 38.3949V33.9771C69 32.7623 68.0297 31.7682 66.8438 31.7682ZM66.8438 9.67932H38.8125V7.47043C38.8125 6.25554 37.8422 5.26154 36.6562 5.26154H32.3438C31.1578 5.26154 30.1875 6.25554 30.1875 7.47043V9.67932H2.15625C0.970312 9.67932 0 10.6733 0 11.8882V16.306C0 17.5209 0.970312 18.5149 2.15625 18.5149H30.1875V20.7238C30.1875 21.9387 31.1578 22.9327 32.3438 22.9327H36.6562C37.8422 22.9327 38.8125 21.9387 38.8125 20.7238V18.5149H66.8438C68.0297 18.5149 69 17.5209 69 16.306V11.8882C69 10.6733 68.0297 9.67932 66.8438 9.67932Z" fill="url(#paint0_linear)"/>
<defs>
<linearGradient id="paint0_linear" x1="34.5" y1="5.26154" x2="34.5" y2="67.1105" gradientUnits="userSpaceOnUse">
<stop stop-color="#F4F4F4"/>
<stop offset="1" stop-color="white" stop-opacity="0"/>
</linearGradient>
</defs>
</svg>
