<svg width="46" height="63" viewBox="0 0 46 63" fill="none" xmlns="http://www.w3.org/2000/svg">
<g clip-path="url(#clip0)">
<path d="M25.7588 8.96492L15.1009 19.8625H2.875C1.28656 19.8625 0 21.1782 0 22.8025V40.4425C0 42.0656 1.28656 43.3825 2.875 43.3825H15.1009L25.7588 54.2789C27.5593 56.1201 30.6667 54.8265 30.6667 52.2001V11.045C30.6667 8.41489 27.5569 7.12742 25.7588 8.96492ZM40.5171 22.2047C39.13 21.4293 37.3798 21.9401 36.6107 23.3623C35.8453 24.7846 36.352 26.5718 37.7428 27.3571C39.2893 28.2268 40.25 29.861 40.25 31.6225C40.25 33.3841 39.2893 35.0182 37.744 35.8867C36.3532 36.672 35.8465 38.4592 36.6119 39.8815C37.3822 41.3098 39.1335 41.817 40.5183 41.0391C43.9001 39.1342 46.0012 35.5266 46.0012 31.6213C46.0012 27.716 43.9001 24.1096 40.5171 22.2047Z" fill="#FF7315"/>
<path d="M25.7588 8.96492L15.1009 19.8625H2.875C1.28656 19.8625 0 21.1782 0 22.8025V40.4425C0 42.0656 1.28656 43.3825 2.875 43.3825H15.1009L25.7588 54.2789C27.5593 56.1201 30.6667 54.8265 30.6667 52.2001V11.045C30.6667 8.41489 27.5569 7.12742 25.7588 8.96492ZM40.5171 22.2047C39.13 21.4293 37.3798 21.9401 36.6107 23.3623C35.8453 24.7846 36.352 26.5718 37.7428 27.3571C39.2893 28.2268 40.25 29.861 40.25 31.6225C40.25 33.3841 39.2893 35.0182 37.744 35.8867C36.3532 36.672 35.8465 38.4592 36.6119 39.8815C37.3822 41.3098 39.1335 41.817 40.5183 41.0391C43.9001 39.1342 46.0012 35.5266 46.0012 31.6213C46.0012 27.716 43.9001 24.1096 40.5171 22.2047Z" fill="url(#paint0_linear)"/>
</g>
<defs>
<linearGradient id="paint0_linear" x1="23.0006" y1="8.10239" x2="23.0006" y2="55.1426" gradientUnits="userSpaceOnUse">
<stop stop-color="#F4F4F4"/>
<stop offset="1" stop-color="white" stop-opacity="0"/>
</linearGradient>
<clipPath id="clip0">
<rect width="46" height="62.72" fill="white" transform="translate(0 0.140015)"/>
</clipPath>
</defs>
</svg>
