<svg width="57" height="63" viewBox="0 0 57 63" fill="none" xmlns="http://www.w3.org/2000/svg">
<g clip-path="url(#clip0)">
<path d="M23.9389 8.84365L14.034 19.74H2.67188C1.19566 19.74 0 21.0557 0 22.68V40.32C0 41.9431 1.19566 43.26 2.67188 43.26H14.034L23.9389 54.1564C25.6121 55.9976 28.5 54.704 28.5 52.0776V10.9225C28.5 8.29362 25.6099 7.00492 23.9389 8.84365ZM51.3935 31.5L56.4745 25.9091C57.1759 25.1374 57.1759 23.8854 56.4745 23.1137L53.934 20.3182C53.2327 19.5465 52.0949 19.5465 51.3935 20.3182L46.3125 25.9091L41.2315 20.3182C40.5301 19.5465 39.3923 19.5465 38.691 20.3182L36.1505 23.1137C35.4491 23.8854 35.4491 25.1374 36.1505 25.9091L41.2315 31.5L36.1516 37.0897C35.4502 37.8615 35.4502 39.1134 36.1516 39.8852L38.6921 42.6806C39.3935 43.4524 40.5312 43.4524 41.2326 42.6806L46.3125 37.0909L51.3935 42.6818C52.0949 43.4536 53.2327 43.4536 53.934 42.6818L56.4745 39.8864C57.1759 39.1146 57.1759 37.8627 56.4745 37.0909L51.3935 31.5Z" fill="#FF7315"/>
<path d="M23.9389 8.84365L14.034 19.74H2.67188C1.19566 19.74 0 21.0557 0 22.68V40.32C0 41.9431 1.19566 43.26 2.67188 43.26H14.034L23.9389 54.1564C25.6121 55.9976 28.5 54.704 28.5 52.0776V10.9225C28.5 8.29362 25.6099 7.00492 23.9389 8.84365ZM51.3935 31.5L56.4745 25.9091C57.1759 25.1374 57.1759 23.8854 56.4745 23.1137L53.934 20.3182C53.2327 19.5465 52.0949 19.5465 51.3935 20.3182L46.3125 25.9091L41.2315 20.3182C40.5301 19.5465 39.3923 19.5465 38.691 20.3182L36.1505 23.1137C35.4491 23.8854 35.4491 25.1374 36.1505 25.9091L41.2315 31.5L36.1516 37.0897C35.4502 37.8615 35.4502 39.1134 36.1516 39.8852L38.6921 42.6806C39.3935 43.4524 40.5312 43.4524 41.2326 42.6806L46.3125 37.0909L51.3935 42.6818C52.0949 43.4536 53.2327 43.4536 53.934 42.6818L56.4745 39.8864C57.1759 39.1146 57.1759 37.8627 56.4745 37.0909L51.3935 31.5Z" fill="url(#paint0_linear)"/>
</g>
<defs>
<linearGradient id="paint0_linear" x1="28.5003" y1="7.98053" x2="28.5003" y2="55.0201" gradientUnits="userSpaceOnUse">
<stop stop-color="#F4F4F4"/>
<stop offset="1" stop-color="white" stop-opacity="0"/>
</linearGradient>
<clipPath id="clip0">
<rect width="57" height="62.72" fill="white" transform="translate(0 0.140015)"/>
</clipPath>
</defs>
</svg>
